<mxfile host="app.diagrams.net" agent="Mozilla/5.0 (X11; Linux x86_64) AppleWebKit/537.36 (KHTML, like Gecko) Chrome/130.0.0.0 Safari/537.36" version="28.1.2">
  <diagram name="Page-1" id="dnohSAwMU9TA7ECe7b6z">
    <mxGraphModel dx="1963" dy="1502" grid="1" gridSize="10" guides="1" tooltips="1" connect="1" arrows="1" fold="1" page="1" pageScale="1" pageWidth="850" pageHeight="1100" math="0" shadow="0">
      <root>
        <mxCell id="0" />
        <mxCell id="1" parent="0" />
        <mxCell id="fMoKQHmdllWXFA7izLaO-1" value="Clientes" style="rounded=0;whiteSpace=wrap;html=1;" vertex="1" parent="1">
          <mxGeometry x="330" y="320" width="120" height="60" as="geometry" />
        </mxCell>
        <mxCell id="fMoKQHmdllWXFA7izLaO-46" value="" style="edgeStyle=orthogonalEdgeStyle;rounded=0;orthogonalLoop=1;jettySize=auto;html=1;endArrow=none;endFill=0;" edge="1" parent="1" source="fMoKQHmdllWXFA7izLaO-2" target="fMoKQHmdllWXFA7izLaO-45">
          <mxGeometry relative="1" as="geometry" />
        </mxCell>
        <mxCell id="fMoKQHmdllWXFA7izLaO-57" style="edgeStyle=orthogonalEdgeStyle;rounded=0;orthogonalLoop=1;jettySize=auto;html=1;entryX=0.5;entryY=0;entryDx=0;entryDy=0;" edge="1" parent="1" source="fMoKQHmdllWXFA7izLaO-2" target="fMoKQHmdllWXFA7izLaO-56">
          <mxGeometry relative="1" as="geometry" />
        </mxCell>
        <mxCell id="fMoKQHmdllWXFA7izLaO-2" value="Productos" style="rounded=0;whiteSpace=wrap;html=1;" vertex="1" parent="1">
          <mxGeometry x="790" y="480" width="120" height="60" as="geometry" />
        </mxCell>
        <mxCell id="fMoKQHmdllWXFA7izLaO-59" style="edgeStyle=orthogonalEdgeStyle;rounded=0;orthogonalLoop=1;jettySize=auto;html=1;" edge="1" parent="1" source="fMoKQHmdllWXFA7izLaO-3" target="fMoKQHmdllWXFA7izLaO-58">
          <mxGeometry relative="1" as="geometry" />
        </mxCell>
        <mxCell id="fMoKQHmdllWXFA7izLaO-3" value="Pedidos Registro" style="rounded=0;whiteSpace=wrap;html=1;" vertex="1" parent="1">
          <mxGeometry x="550" y="480" width="120" height="60" as="geometry" />
        </mxCell>
        <mxCell id="fMoKQHmdllWXFA7izLaO-53" style="edgeStyle=orthogonalEdgeStyle;rounded=0;orthogonalLoop=1;jettySize=auto;html=1;" edge="1" parent="1" source="fMoKQHmdllWXFA7izLaO-4" target="fMoKQHmdllWXFA7izLaO-52">
          <mxGeometry relative="1" as="geometry" />
        </mxCell>
        <mxCell id="fMoKQHmdllWXFA7izLaO-4" value="Representantes de Ventas" style="rounded=0;whiteSpace=wrap;html=1;" vertex="1" parent="1">
          <mxGeometry x="70" y="640" width="120" height="60" as="geometry" />
        </mxCell>
        <mxCell id="fMoKQHmdllWXFA7izLaO-55" style="edgeStyle=orthogonalEdgeStyle;rounded=0;orthogonalLoop=1;jettySize=auto;html=1;entryX=0.5;entryY=0;entryDx=0;entryDy=0;" edge="1" parent="1" source="fMoKQHmdllWXFA7izLaO-5" target="fMoKQHmdllWXFA7izLaO-54">
          <mxGeometry relative="1" as="geometry" />
        </mxCell>
        <mxCell id="fMoKQHmdllWXFA7izLaO-5" value="Representante de Equipo" style="rounded=0;whiteSpace=wrap;html=1;" vertex="1" parent="1">
          <mxGeometry x="330" y="640" width="120" height="60" as="geometry" />
        </mxCell>
        <mxCell id="fMoKQHmdllWXFA7izLaO-17" style="edgeStyle=orthogonalEdgeStyle;rounded=0;orthogonalLoop=1;jettySize=auto;html=1;" edge="1" parent="1" source="fMoKQHmdllWXFA7izLaO-15" target="fMoKQHmdllWXFA7izLaO-4">
          <mxGeometry relative="1" as="geometry" />
        </mxCell>
        <mxCell id="fMoKQHmdllWXFA7izLaO-15" value="1:n&lt;div&gt;Atender Equipo&lt;/div&gt;" style="rhombus;whiteSpace=wrap;html=1;rounded=0;" vertex="1" parent="1">
          <mxGeometry x="220" y="630" width="80" height="80" as="geometry" />
        </mxCell>
        <mxCell id="fMoKQHmdllWXFA7izLaO-18" value="" style="endArrow=none;html=1;rounded=0;exitX=1;exitY=0.5;exitDx=0;exitDy=0;entryX=0;entryY=0.5;entryDx=0;entryDy=0;" edge="1" parent="1" source="fMoKQHmdllWXFA7izLaO-15" target="fMoKQHmdllWXFA7izLaO-5">
          <mxGeometry width="50" height="50" relative="1" as="geometry">
            <mxPoint x="380" y="700" as="sourcePoint" />
            <mxPoint x="430" y="650" as="targetPoint" />
          </mxGeometry>
        </mxCell>
        <mxCell id="fMoKQHmdllWXFA7izLaO-51" style="edgeStyle=orthogonalEdgeStyle;rounded=0;orthogonalLoop=1;jettySize=auto;html=1;" edge="1" parent="1" source="fMoKQHmdllWXFA7izLaO-21" target="fMoKQHmdllWXFA7izLaO-50">
          <mxGeometry relative="1" as="geometry" />
        </mxCell>
        <mxCell id="fMoKQHmdllWXFA7izLaO-65" style="edgeStyle=orthogonalEdgeStyle;rounded=0;orthogonalLoop=1;jettySize=auto;html=1;entryX=1;entryY=0.5;entryDx=0;entryDy=0;" edge="1" parent="1" source="fMoKQHmdllWXFA7izLaO-21" target="fMoKQHmdllWXFA7izLaO-64">
          <mxGeometry relative="1" as="geometry" />
        </mxCell>
        <mxCell id="fMoKQHmdllWXFA7izLaO-67" style="edgeStyle=orthogonalEdgeStyle;rounded=0;orthogonalLoop=1;jettySize=auto;html=1;entryX=1;entryY=0.5;entryDx=0;entryDy=0;" edge="1" parent="1" source="fMoKQHmdllWXFA7izLaO-21" target="fMoKQHmdllWXFA7izLaO-66">
          <mxGeometry relative="1" as="geometry" />
        </mxCell>
        <mxCell id="fMoKQHmdllWXFA7izLaO-21" value="Cliente PQR" style="rounded=0;whiteSpace=wrap;html=1;" vertex="1" parent="1">
          <mxGeometry x="70" y="320" width="120" height="60" as="geometry" />
        </mxCell>
        <mxCell id="fMoKQHmdllWXFA7izLaO-24" style="edgeStyle=orthogonalEdgeStyle;rounded=0;orthogonalLoop=1;jettySize=auto;html=1;entryX=0.5;entryY=0;entryDx=0;entryDy=0;" edge="1" parent="1" source="fMoKQHmdllWXFA7izLaO-22" target="fMoKQHmdllWXFA7izLaO-4">
          <mxGeometry relative="1" as="geometry" />
        </mxCell>
        <mxCell id="fMoKQHmdllWXFA7izLaO-22" value="1:n&lt;div&gt;Atender PQR&lt;/div&gt;" style="rhombus;whiteSpace=wrap;html=1;rounded=0;" vertex="1" parent="1">
          <mxGeometry x="90" y="470" width="80" height="80" as="geometry" />
        </mxCell>
        <mxCell id="fMoKQHmdllWXFA7izLaO-25" value="" style="endArrow=none;html=1;rounded=0;exitX=0.5;exitY=1;exitDx=0;exitDy=0;" edge="1" parent="1" source="fMoKQHmdllWXFA7izLaO-21" target="fMoKQHmdllWXFA7izLaO-22">
          <mxGeometry width="50" height="50" relative="1" as="geometry">
            <mxPoint x="380" y="600" as="sourcePoint" />
            <mxPoint x="430" y="550" as="targetPoint" />
          </mxGeometry>
        </mxCell>
        <mxCell id="fMoKQHmdllWXFA7izLaO-30" style="edgeStyle=orthogonalEdgeStyle;rounded=0;orthogonalLoop=1;jettySize=auto;html=1;entryX=0;entryY=0.5;entryDx=0;entryDy=0;" edge="1" parent="1" source="fMoKQHmdllWXFA7izLaO-26" target="fMoKQHmdllWXFA7izLaO-1">
          <mxGeometry relative="1" as="geometry" />
        </mxCell>
        <mxCell id="fMoKQHmdllWXFA7izLaO-26" value="n:1&lt;div&gt;Hacer PQR&lt;/div&gt;" style="rhombus;whiteSpace=wrap;html=1;rounded=0;" vertex="1" parent="1">
          <mxGeometry x="220" y="310" width="80" height="80" as="geometry" />
        </mxCell>
        <mxCell id="fMoKQHmdllWXFA7izLaO-29" value="" style="endArrow=none;html=1;rounded=0;exitX=1.008;exitY=0.589;exitDx=0;exitDy=0;exitPerimeter=0;" edge="1" parent="1" source="fMoKQHmdllWXFA7izLaO-21" target="fMoKQHmdllWXFA7izLaO-26">
          <mxGeometry width="50" height="50" relative="1" as="geometry">
            <mxPoint x="300" y="600" as="sourcePoint" />
            <mxPoint x="350" y="550" as="targetPoint" />
          </mxGeometry>
        </mxCell>
        <mxCell id="fMoKQHmdllWXFA7izLaO-34" style="edgeStyle=orthogonalEdgeStyle;rounded=0;orthogonalLoop=1;jettySize=auto;html=1;exitX=0.5;exitY=1;exitDx=0;exitDy=0;" edge="1" parent="1" source="fMoKQHmdllWXFA7izLaO-31" target="fMoKQHmdllWXFA7izLaO-5">
          <mxGeometry relative="1" as="geometry" />
        </mxCell>
        <mxCell id="fMoKQHmdllWXFA7izLaO-31" value="1:n&lt;div&gt;Direcciones&lt;/div&gt;" style="rhombus;whiteSpace=wrap;html=1;" vertex="1" parent="1">
          <mxGeometry x="350" y="550" width="80" height="80" as="geometry" />
        </mxCell>
        <mxCell id="fMoKQHmdllWXFA7izLaO-61" style="edgeStyle=orthogonalEdgeStyle;rounded=0;orthogonalLoop=1;jettySize=auto;html=1;" edge="1" parent="1" source="fMoKQHmdllWXFA7izLaO-32" target="fMoKQHmdllWXFA7izLaO-60">
          <mxGeometry relative="1" as="geometry" />
        </mxCell>
        <mxCell id="fMoKQHmdllWXFA7izLaO-32" value="Direcciones" style="rounded=0;whiteSpace=wrap;html=1;" vertex="1" parent="1">
          <mxGeometry x="330" y="480" width="120" height="60" as="geometry" />
        </mxCell>
        <mxCell id="fMoKQHmdllWXFA7izLaO-35" style="edgeStyle=orthogonalEdgeStyle;rounded=0;orthogonalLoop=1;jettySize=auto;html=1;exitX=0.5;exitY=0;exitDx=0;exitDy=0;entryX=0.5;entryY=1;entryDx=0;entryDy=0;" edge="1" parent="1" source="fMoKQHmdllWXFA7izLaO-33" target="fMoKQHmdllWXFA7izLaO-1">
          <mxGeometry relative="1" as="geometry" />
        </mxCell>
        <mxCell id="fMoKQHmdllWXFA7izLaO-33" value="n:1&lt;div&gt;Direcciones&lt;/div&gt;" style="rhombus;whiteSpace=wrap;html=1;" vertex="1" parent="1">
          <mxGeometry x="350" y="390" width="80" height="80" as="geometry" />
        </mxCell>
        <mxCell id="fMoKQHmdllWXFA7izLaO-36" value="" style="endArrow=none;html=1;rounded=0;entryX=0.5;entryY=1;entryDx=0;entryDy=0;" edge="1" parent="1" source="fMoKQHmdllWXFA7izLaO-31" target="fMoKQHmdllWXFA7izLaO-32">
          <mxGeometry width="50" height="50" relative="1" as="geometry">
            <mxPoint x="360" y="600" as="sourcePoint" />
            <mxPoint x="410" y="550" as="targetPoint" />
          </mxGeometry>
        </mxCell>
        <mxCell id="fMoKQHmdllWXFA7izLaO-38" value="" style="endArrow=none;html=1;rounded=0;entryX=0.5;entryY=1;entryDx=0;entryDy=0;exitX=0.5;exitY=0;exitDx=0;exitDy=0;" edge="1" parent="1" source="fMoKQHmdllWXFA7izLaO-32" target="fMoKQHmdllWXFA7izLaO-33">
          <mxGeometry width="50" height="50" relative="1" as="geometry">
            <mxPoint x="360" y="600" as="sourcePoint" />
            <mxPoint x="410" y="550" as="targetPoint" />
          </mxGeometry>
        </mxCell>
        <mxCell id="fMoKQHmdllWXFA7izLaO-41" style="edgeStyle=orthogonalEdgeStyle;rounded=0;orthogonalLoop=1;jettySize=auto;html=1;entryX=1;entryY=0.5;entryDx=0;entryDy=0;" edge="1" parent="1" source="fMoKQHmdllWXFA7izLaO-39" target="fMoKQHmdllWXFA7izLaO-5">
          <mxGeometry relative="1" as="geometry" />
        </mxCell>
        <mxCell id="fMoKQHmdllWXFA7izLaO-39" value="1:n&lt;div&gt;Hacer Pedido&lt;/div&gt;" style="rhombus;whiteSpace=wrap;html=1;" vertex="1" parent="1">
          <mxGeometry x="520" y="570" width="80" height="80" as="geometry" />
        </mxCell>
        <mxCell id="fMoKQHmdllWXFA7izLaO-42" style="edgeStyle=orthogonalEdgeStyle;rounded=0;orthogonalLoop=1;jettySize=auto;html=1;entryX=1;entryY=0.5;entryDx=0;entryDy=0;" edge="1" parent="1" source="fMoKQHmdllWXFA7izLaO-40" target="fMoKQHmdllWXFA7izLaO-1">
          <mxGeometry relative="1" as="geometry" />
        </mxCell>
        <mxCell id="fMoKQHmdllWXFA7izLaO-44" style="edgeStyle=orthogonalEdgeStyle;rounded=0;orthogonalLoop=1;jettySize=auto;html=1;entryX=0.5;entryY=0;entryDx=0;entryDy=0;endArrow=none;endFill=0;" edge="1" parent="1" source="fMoKQHmdllWXFA7izLaO-40" target="fMoKQHmdllWXFA7izLaO-3">
          <mxGeometry relative="1" as="geometry" />
        </mxCell>
        <mxCell id="fMoKQHmdllWXFA7izLaO-40" value="1:n&lt;div&gt;Hacer Pedido&lt;/div&gt;" style="rhombus;whiteSpace=wrap;html=1;" vertex="1" parent="1">
          <mxGeometry x="520" y="360" width="80" height="80" as="geometry" />
        </mxCell>
        <mxCell id="fMoKQHmdllWXFA7izLaO-43" style="edgeStyle=orthogonalEdgeStyle;rounded=0;orthogonalLoop=1;jettySize=auto;html=1;entryX=0.414;entryY=1.056;entryDx=0;entryDy=0;entryPerimeter=0;endArrow=none;endFill=0;" edge="1" parent="1" source="fMoKQHmdllWXFA7izLaO-39" target="fMoKQHmdllWXFA7izLaO-3">
          <mxGeometry relative="1" as="geometry" />
        </mxCell>
        <mxCell id="fMoKQHmdllWXFA7izLaO-47" style="edgeStyle=orthogonalEdgeStyle;rounded=0;orthogonalLoop=1;jettySize=auto;html=1;entryX=1;entryY=0.5;entryDx=0;entryDy=0;endArrow=none;endFill=0;" edge="1" parent="1" source="fMoKQHmdllWXFA7izLaO-45" target="fMoKQHmdllWXFA7izLaO-3">
          <mxGeometry relative="1" as="geometry" />
        </mxCell>
        <mxCell id="fMoKQHmdllWXFA7izLaO-45" value="m:m&lt;div&gt;Tabla de los productos de un pedido&lt;/div&gt;" style="rhombus;whiteSpace=wrap;html=1;rounded=0;" vertex="1" parent="1">
          <mxGeometry x="690" y="470" width="80" height="80" as="geometry" />
        </mxCell>
        <mxCell id="fMoKQHmdllWXFA7izLaO-50" value="ID&lt;hr&gt;" style="ellipse;whiteSpace=wrap;html=1;" vertex="1" parent="1">
          <mxGeometry x="70" y="160" width="120" height="80" as="geometry" />
        </mxCell>
        <mxCell id="fMoKQHmdllWXFA7izLaO-52" value="ID&lt;hr&gt;" style="ellipse;whiteSpace=wrap;html=1;" vertex="1" parent="1">
          <mxGeometry x="70" y="740" width="120" height="80" as="geometry" />
        </mxCell>
        <mxCell id="fMoKQHmdllWXFA7izLaO-54" value="ID&lt;hr&gt;" style="ellipse;whiteSpace=wrap;html=1;" vertex="1" parent="1">
          <mxGeometry x="330" y="740" width="120" height="80" as="geometry" />
        </mxCell>
        <mxCell id="fMoKQHmdllWXFA7izLaO-56" value="ID&lt;hr&gt;" style="ellipse;whiteSpace=wrap;html=1;" vertex="1" parent="1">
          <mxGeometry x="790" y="580" width="120" height="80" as="geometry" />
        </mxCell>
        <mxCell id="fMoKQHmdllWXFA7izLaO-58" value="ID&lt;hr&gt;" style="ellipse;whiteSpace=wrap;html=1;" vertex="1" parent="1">
          <mxGeometry x="640" y="320" width="120" height="80" as="geometry" />
        </mxCell>
        <mxCell id="fMoKQHmdllWXFA7izLaO-60" value="ID&lt;hr&gt;" style="ellipse;whiteSpace=wrap;html=1;" vertex="1" parent="1">
          <mxGeometry x="190" y="470" width="120" height="80" as="geometry" />
        </mxCell>
        <mxCell id="fMoKQHmdllWXFA7izLaO-64" value="PQR String" style="ellipse;whiteSpace=wrap;html=1;" vertex="1" parent="1">
          <mxGeometry x="-90" y="150" width="120" height="80" as="geometry" />
        </mxCell>
        <mxCell id="fMoKQHmdllWXFA7izLaO-66" value="Status" style="ellipse;whiteSpace=wrap;html=1;" vertex="1" parent="1">
          <mxGeometry x="-150" y="290" width="120" height="80" as="geometry" />
        </mxCell>
      </root>
    </mxGraphModel>
  </diagram>
</mxfile>
